PathFileType	4	(X/Y/Z)	C:/Users/opensim2020/Desktop/walking_exp_matlab/subject03_walking04_straight_03.trc	
DataRate	CameraRate	NumFrames	NumMarkers	Units	OrigDataRate	OrigDataStartFrame	OrigNumFrames	
100.00	100.00	7	51	mm	100.00	2469	256	
Frame#	Time	LFHD			RFHD			LBHD			RBHD			C7			T10			CLAV			STRN			RBAK			LSHO			LUPA			LELB			LFRM			LWRA			LWRB			LFIN			RSHO			RUPA			RELB			RFRM			RWRA			RWRB			RFIN			LASI			RASI			LPSI			RPSI			LTHI			LKNE			LTIB			LANK			LHEE			LTOE			RTHI			RKNE			RTIB			RANK			RHEE			RTOE			*39			*40			*41			*42			*43			*44			*45			*46			*47			*48			*49			*50			
		X1	Y1	Z1	X2	Y2	Z2	X3	Y3	Z3	X4	Y4	Z4	X5	Y5	Z5	X6	Y6	Z6	X7	Y7	Z7	X8	Y8	Z8	X9	Y9	Z9	X10	Y10	Z10	X11	Y11	Z11	X12	Y12	Z12	X13	Y13	Z13	X14	Y14	Z14	X15	Y15	Z15	X16	Y16	Z16	X17	Y17	Z17	X18	Y18	Z18	X19	Y19	Z19	X20	Y20	Z20	X21	Y21	Z21	X22	Y22	Z22	X23	Y23	Z23	X24	Y24	Z24	X25	Y25	Z25	X26	Y26	Z26	X27	Y27	Z27	X28	Y28	Z28	X29	Y29	Z29	X30	Y30	Z30	X31	Y31	Z31	X32	Y32	Z32	X33	Y33	Z33	X34	Y34	Z34	X35	Y35	Z35	X36	Y36	Z36	X37	Y37	Z37	X38	Y38	Z38	X39	Y39	Z39	X40	Y40	Z40	X41	Y41	Z41	X42	Y42	Z42	X43	Y43	Z43	X44	Y44	Z44	X45	Y45	Z45	X46	Y46	Z46	X47	Y47	Z47	X48	Y48	Z48	X49	Y49	Z49	X50	Y50	Z50	X51	Y51	Z51	

225	2.240	-1209.76355	988.98407	1604.39014	-1083.05115	947.87177	1605.26685	-1247.93127	859.66888	1589.78284	-1122.07153	823.43384	1589.34729	-1201.32263	790.96008	1418.30798	-1202.08875	762.82404	1100.21301	-1181.74072	911.25153	1343.08801	-1181.01221	959.11743	1179.35901	-1110.65356	727.73254	1238.43323	-1341.51025	889.29419	1379.13269	-1417.29614	914.07001	1185.50452	-1429.75098	939.52429	1065.40051	-1421.58740	984.10791	942.97882	-1387.70337	1011.43860	828.87897	-1442.90723	1004.90326	832.90057	-1430.51782	1034.21704	755.21423	-1030.04285	842.99908	1365.57007	-958.56677	847.55652	1142.16003	-944.50159	870.09814	1031.89905	-942.53308	899.98816	898.33124	-976.16730	944.05023	807.70581	-935.51501	909.10828	798.27161	-944.42651	940.18427	730.36292	-1301.18933	943.10083	941.88184	-1064.16968	918.25928	937.94818	-1265.95886	776.31134	965.78278	-1117.68591	763.00146	964.31171	-1344.00659	879.74359	640.15027	-1303.43994	870.31818	462.10782	-1310.04578	808.49329	276.13867	-1271.95081	770.73444	68.95049	-1240.03113	726.98767	35.19866	-1247.25610	920.89832	29.11875	-1026.07043	932.78259	644.74994	-1052.17944	1004.39807	479.81604	-1059.05627	900.49805	318.33627	-1110.80457	787.36859	137.11914	-1166.91162	735.95422	125.58585	-1120.95117	894.85944	46.92140	-1180.18530	909.57562	1681.11719																																	 
226	2.250	-1207.99731	999.41217	1603.12720	-1081.42261	957.85938	1603.86060	-1246.67163	870.13898	1589.45471	-1120.95850	833.44904	1588.75818	-1201.01221	800.12378	1418.00598	-1202.01733	772.02582	1099.38379	-1180.94727	920.31671	1342.51172	-1180.30847	967.89642	1178.82898	-1110.94531	736.46466	1237.61084	-1340.60596	898.92371	1378.84253	-1416.88159	926.52185	1186.03357	-1429.72205	954.11621	1066.57813	-1421.41345	1001.36273	945.17590	-1387.36475	1031.44568	831.83667	-1442.46106	1024.64514	835.42511	-1430.04285	1055.69324	758.47089	-1029.42249	851.30408	1364.80054	-958.03558	853.95001	1141.33557	-943.94025	875.09717	1030.81262	-942.11877	904.06268	897.07788	-975.69519	947.95178	806.37115	-935.41901	912.62299	797.05884	-944.26617	943.29688	728.83325	-1300.91260	952.12091	941.11389	-1063.51367	927.72784	937.74170	-1265.58667	785.40558	965.15143	-1117.41614	771.97156	963.61212	-1343.59790	886.01355	639.55511	-1303.33875	874.39508	461.80508	-1309.95166	810.75854	276.33316	-1271.96436	771.04895	69.42140	-1239.98218	727.03961	35.83427	-1247.34692	920.94281	29.09480	-1025.09155	943.94098	645.44586	-1051.87244	1018.02496	481.40839	-1058.91370	921.43103	314.91025	-1111.34290	817.83728	128.06596	-1167.73254	767.31921	113.51424	-1120.89807	930.11060	44.20206	-1178.41980	920.37769	1680.24390																																	 
227	2.260	-1206.20020	1009.86908	1601.73633	-1079.77625	967.91974	1602.28333	-1245.35742	880.63129	1589.02283	-1119.77319	843.53180	1588.10486	-1200.52795	809.41394	1417.49084	-1201.98755	781.18097	1098.87183	-1180.09119	929.34430	1341.85144	-1179.52112	977.03351	1178.23059	-1111.10461	745.19525	1236.76941	-1339.69238	908.48596	1378.40771	-1416.49048	938.90045	1186.52905	-1429.67078	968.67755	1067.68042	-1421.24329	1018.55957	947.39172	-1387.00232	1051.26270	834.80731	-1442.09607	1044.42395	838.23425	-1429.41675	1076.91382	761.72534	-1028.78491	859.59625	1363.79968	-957.49567	860.47375	1140.41650	-943.37469	880.26617	1029.68726	-941.69208	908.30682	895.74573	-975.15558	951.84985	804.87329	-935.29987	916.19604	795.59399	-944.24725	946.50317	727.19574	-1300.68274	961.20093	940.42090	-1063.26147	936.79779	937.19537	-1265.08398	794.44452	964.59308	-1116.97864	781.06451	962.94330	-1343.11609	892.07318	639.03955	-1303.17090	878.32593	461.35223	-1309.76074	812.95526	276.51056	-1272.02026	771.42053	69.92216	-1239.76282	726.69934	36.67202	-1247.27771	921.03143	29.13653	-1024.04785	955.38348	645.82556	-1051.37256	1031.03235	482.62170	-1058.63684	942.05981	311.35406	-1111.55688	848.96802	119.23029	-1167.89819	799.72266	102.14561	-1120.49023	965.76349	42.09213	-1176.63354	931.23486	1679.24634																																	 
228	2.270	-1204.32190	1020.34259	1600.21912	-1078.02063	978.01459	1600.57507	-1243.98035	891.15558	1588.50977	-1118.53516	853.60797	1587.34399	-1200.06360	818.74164	1416.86377	-1201.76184	790.32898	1098.05225	-1179.08154	938.27509	1341.01733	-1178.73340	986.21454	1177.51660	-1111.21631	753.96606	1235.79089	-1338.76416	918.01007	1377.82520	-1415.96631	951.12152	1186.91589	-1429.48584	983.01166	1068.71777	-1420.97925	1035.59998	949.61847	-1386.56714	1070.95032	837.92944	-1441.59033	1063.81628	840.96228	-1428.68982	1097.79712	765.04346	-1028.12708	867.95520	1362.89172	-956.90356	867.07764	1139.35986	-942.84558	885.61646	1028.48889	-941.20972	912.70917	894.33112	-974.60876	955.80878	803.30933	-935.30969	919.79254	793.92981	-944.19281	949.65796	725.42584	-1300.36987	970.15021	939.55994	-1063.04529	946.12244	936.76556	-1264.51013	803.53412	963.91736	-1116.53003	790.23181	962.23187	-1342.53418	898.08093	638.53015	-1302.88477	882.31177	460.97836	-1309.39685	815.21594	276.73560	-1272.00916	771.66425	70.40978	-1239.67920	726.73865	37.41583	-1247.28918	921.14337	29.17460	-1022.93140	966.05493	646.11078	-1050.79236	1043.21069	483.41110	-1058.23755	962.35089	307.74689	-1111.61975	880.29468	110.69217	-1168.09216	832.73059	90.78658	-1119.88989	1001.63141	40.51946	-1173.50818	940.85486	1677.52258																																	 
229	2.280	-1202.40356	1030.84363	1598.61816	-1076.30762	988.08771	1598.75830	-1242.56226	901.70294	1587.95410	-1117.22351	863.73706	1586.48987	-1199.46936	828.16437	1416.11353	-1201.34424	799.49457	1097.19824	-1177.83337	946.99957	1339.93323	-1177.89307	995.42029	1176.58032	-1111.20105	762.77197	1234.80396	-1337.84607	927.54175	1377.19202	-1415.37012	963.18799	1187.24585	-1429.21582	997.28284	1069.72888	-1420.64746	1052.35803	951.79486	-1385.99988	1090.35315	841.04858	-1440.99512	1082.88892	843.68744	-1427.81580	1118.40088	768.38580	-1027.45813	876.40308	1361.85034	-956.31891	873.72498	1138.29199	-942.31146	891.12018	1027.17725	-940.77246	917.20465	892.86102	-974.08521	959.81647	801.64148	-935.02704	923.56512	792.33362	-944.14642	952.88580	723.60217	-1300.02856	979.12006	938.59039	-1062.76685	955.57764	936.21045	-1263.91895	812.66168	963.13434	-1115.95703	799.50549	961.43970	-1341.95886	904.19409	637.99487	-1302.51538	886.34546	460.57578	-1309.22595	817.34033	276.93448	-1271.80127	771.87628	70.98044	-1239.53125	726.81219	38.16970	-1247.48254	921.39130	29.42083	-1021.80078	976.41760	646.06940	-1050.21069	1054.54370	483.72910	-1057.70166	982.43671	304.10794	-1111.58447	912.49457	102.08536	-1167.89807	865.74969	79.42463	-1119.20325	1037.61377	39.53988	-1171.53821	951.79083	1676.29114																																	 
230	2.290	-1200.47742	1041.32874	1596.90369	-1074.52014	998.23718	1596.87036	-1241.10620	912.25610	1587.32715	-1115.85303	873.92255	1585.65576	-1198.77258	837.69788	1415.30188	-1200.78931	808.69647	1096.32764	-1176.87097	956.34796	1338.82129	-1177.13098	1004.70721	1175.52319	-1111.13379	771.71576	1233.73425	-1336.80615	937.12396	1376.48535	-1414.73755	975.06702	1187.50488	-1428.80359	1011.35999	1070.60913	-1420.37561	1068.99707	954.06244	-1385.36646	1109.62744	844.27985	-1440.27490	1101.70642	846.41388	-1426.86304	1138.74585	771.82074	-1026.71008	884.88330	1360.63818	-955.69940	880.41284	1137.06409	-941.59515	896.67792	1025.84985	-940.35730	921.84619	891.33685	-973.55444	964.16010	799.93665	-934.80261	927.50458	790.83490	-944.17554	956.23816	721.72687	-1299.66919	987.85724	937.42200	-1062.43799	965.14569	935.48145	-1263.20862	821.83679	962.25555	-1115.25500	808.84314	960.64484	-1341.35034	910.55170	637.40717	-1302.07935	890.61981	460.21414	-1308.93689	819.50885	277.16556	-1271.60718	772.26056	71.69659	-1239.30701	726.92010	39.17500	-1247.31482	921.21307	29.23055	-1020.64294	986.58771	645.77069	-1049.63428	1065.29980	483.61060	-1057.03809	1002.18811	300.56360	-1111.15808	944.90887	94.56106	-1167.86963	899.62244	69.03429	-1118.30554	1073.45740	39.16078	-1169.49585	962.77502	1674.99878																																	 
231	2.300	-1198.52234	1051.82605	1595.10706	-1072.74622	1008.37347	1594.92615	-1239.60864	922.80145	1586.59436	-1114.47046	884.13727	1584.75439	-1197.96558	847.33221	1414.37000	-1200.12463	817.89459	1095.28223	-1175.82251	965.74561	1337.63391	-1176.39197	1014.09863	1174.36670	-1111.02393	780.68890	1232.62439	-1335.75073	946.77533	1375.68213	-1414.00464	986.74695	1187.54187	-1428.30066	1025.21204	1071.47229	-1419.84216	1085.29407	956.17468	-1384.57190	1128.44360	847.44897	-1439.42566	1120.08545	849.06866	-1425.79395	1158.74902	775.32129	-1025.91345	893.47314	1359.20776	-955.08441	887.20862	1135.75061	-941.15509	902.54834	1024.36084	-939.93158	926.69781	889.69733	-972.86188	968.90869	798.24982	-934.33911	931.37622	789.09662	-944.10999	959.72089	719.76202	-1298.98438	997.40753	936.64130	-1062.06873	974.71393	934.52832	-1262.88770	830.31683	961.66339	-1114.53333	818.22034	959.67163	-1340.66370	917.11707	636.67450	-1301.65283	894.89044	459.83978	-1308.57483	821.68555	277.45062	-1271.30225	772.31989	72.24107	-1238.81384	726.97937	40.17152	-1247.28320	921.23456	29.21909	-1019.68701	995.98572	644.89783	-1049.15503	1075.38782	483.03116	-1056.25037	1021.63440	297.22623	-1110.18677	977.35675	87.98974	-1167.51355	933.85150	60.40900	-1117.02502	1108.91309	39.44923	-1167.44958	973.76959	1673.60181																																	 
